# xmcd
#
# Track frame offsets:
#	150
#	14604
#	28907
#	43444
#	54910
#	67302
#	81381
#	95968
#	110010
#	124691
#	135826
#	150408
#	165306
#	178963
#	187923
#	202399
#	215671
#	230760
#	242876
#	249636
#
# Disc length: 3536 seconds
#
# Revision: 11
# Processed by: cddbd v1.5.1PL0 Copyright (c) Steve Scherf et al.
# Submitted via: audiograbber 1.83.01
#
DISCID=330dce14
DTITLE=Frank Sinatra - Time After Time
DYEAR=1900
DGENRE=
TTITLE0=Time After Time
TTITLE1=Sweet Lorraine
TTITLE2=That's How Much I Love You
TTITLE3=The Coffee Song
TTITLE4=Saturday Nigth
TTITLE5=September Song
TTITLE6=So Far
TTITLE7=They Say It's Wonderful
TTITLE8=This Is The Night
TTITLE9=Road To Mandalay
TTITLE10=Stella By Starlight
TTITLE11=Sunday, Monday Or Always
TTITLE12=You'll Never Know
TTITLE13=They Didn't Believe Me
TTITLE14=People Will Say We're In Love
TTITLE15=Something Old, Something New
TTITLE16=The Thing We Did Last Summer
TTITLE17=There Are Such Things
TTITLE18=Somebody Loves Me
TTITLE19=You'll Never Walk Alone
EXTD=
EXTT0=
EXTT1=
EXTT2=
EXTT3=
EXTT4=
EXTT5=
EXTT6=
EXTT7=
EXTT8=
EXTT9=
EXTT10=
EXTT11=
EXTT12=
EXTT13=
EXTT14=
EXTT15=
EXTT16=
EXTT17=
EXTT18=
EXTT19=
PLAYORDER=
